<svg width="1200" height="1200" xmlns="http://www.w3.org/2000/svg" xmlns:xlink="http://www.w3.org/1999/xlink" version="1.1"><g transform="scale(16.564416014940505) translate(-14.177774853176539, -14.87777943081326)">                        <g fill="#111111"><g xmlns="http://www.w3.org/2000/svg"><path d="M20.6,23.2l25.2-4.4c3.1-0.4,6.1-0.4,9.1,0l25.3,4.5v35.5L80,58.9c-9.2,14.4-26.1,23.5-27.3,24.2c-0.6,0.4-1.3,0.6-2.1,0.6   c-0.7,0-1.5-0.2-2.3-0.5c-0.9-0.5-20.3-10.7-27.5-24.4l-0.1-0.3V23.2z M46.1,21.1L23,25.2V58c6.9,12.8,26.1,23,26.3,23.1   c0.7,0.3,1.6,0.4,2.1,0.1l0.1-0.1c0.2-0.1,17.2-9.2,26.3-23.1V25.2l-23.2-4.1C51.9,20.8,48.9,20.7,46.1,21.1z"/><path d="M54.1,23.8c-0.9-0.1-1.9-0.2-2.9-0.2c-1.6,0-3.2,0-4.8,0.2l-20.6,3.6v29.8l-0.1,0.1l0.1,0.1v0.3l0.4,0.6   c0.9,1.2,1.9,2.5,3.1,3.9c1.2,1.4,2.6,2.7,4,4c1.3,1.2,2.7,2.4,4.3,3.7c1.4,1.1,2.9,2.2,4.5,3.5c1.5,1.1,3,2.2,4.7,3.3   c0.8,0.5,1.5,1,2,1.3l1.5,0.7l1.2-0.8c6.6-4.3,15.9-11.2,22.7-20.1l0.5-0.7V27.4L54.1,23.8z M39.8,27.4L28.2,39l0-9.6L39.8,27.4z    M28.3,48.6L50.9,26c0.1,0,0.2,0,0.3,0c1,0,1.8,0.1,2.6,0.2l2.6,0.5L28.3,54.8L28.3,48.6z M31.6,61.1l33-33l5.3,0.9L34.7,64.2   C33.6,63.1,32.5,62.1,31.6,61.1z M39.8,68.6l32.7-32.7v6.2L43.3,71.3C42,70.4,40.9,69.5,39.8,68.6z M72.5,56.5   C65.9,65,56.8,71.8,50.4,76L50.3,76l-0.1,0c-0.3-0.2-0.8-0.5-1.2-0.8l23.5-23.5L72.5,56.5L72.5,56.5z"/></g></g>        </g></svg>